<svg xmlns="http://www.w3.org/2000/svg" xmlns:xlink="http://www.w3.org/1999/xlink" version="1.1" width="1000" height="1000" viewBox="0 0 1000 1000" xml:space="preserve">
<desc>Created with Fabric.js 3.5.0</desc>
<defs>
</defs>
<rect x="0" y="0" width="100%" height="100%" fill="#ffffff"/>
<g transform="matrix(0.5473 0 0 0.5473 218.92 499.9806)" id="967176">
<g style="" vector-effect="non-scaling-stroke">
		<g transform="matrix(1.5625 0 0 1.5625 -0.0016 0.0008)" id="Layer_1">
<path style="stroke: none; stroke-width: 1; stroke-dasharray: none; stroke-linecap: butt; stroke-dashoffset: 0; stroke-linejoin: miter; stroke-miterlimit: 4; is-custom-font: none; font-file-url: none; fill: rgb(224,160,61); fill-rule: nonzero; opacity: 1;" transform=" translate(-255.999, -256.0005)" d="M 460.091 211.694 c 0 -112.718 -91.375 -204.092 -204.091 -204.092 S 51.908 98.976 51.908 211.694 c -21.477 0 -38.886 17.411 -38.886 38.886 s 17.408 38.886 38.886 38.886 l 54.443 214.933 h 311.316 l 42.423 -214.933 c 21.477 0 38.886 -17.411 38.886 -38.886 S 481.568 211.694 460.091 211.694 z" stroke-linecap="round"/>
</g>
		<g transform="matrix(1.5625 0 0 1.5625 -0.0008 220.2055)" id="Layer_1">
<polyline style="stroke: none; stroke-width: 1; stroke-dasharray: none; stroke-linecap: butt; stroke-dashoffset: 0; stroke-linejoin: miter; stroke-miterlimit: 4; is-custom-font: none; font-file-url: none; fill: rgb(99,162,174); fill-rule: nonzero; opacity: 1;" points="-90.8475,-107.4665 204.0915,-107.4665 161.6685,107.4665 -149.6485,107.4665 -204.0915,-107.4665 -111.1205,-107.4665 "/>
</g>
		<g transform="matrix(1.5625 0 0 1.5625 0.0008 0)" id="Layer_1">
<path style="stroke: none; stroke-width: 1; stroke-dasharray: none; stroke-linecap: butt; stroke-dashoffset: 0; stroke-linejoin: miter; stroke-miterlimit: 4; is-custom-font: none; font-file-url: none; fill: rgb(73,30,23); fill-rule: nonzero; opacity: 1;" transform=" translate(-256.0005, -256)" d="M 467.579 204.694 C 463.87 91.196 370.385 0 255.999 0 S 48.13 91.196 44.421 204.694 c -22.086 3.591 -39 22.8 -39 45.885 c 0 23.596 17.67 43.143 40.473 46.1 L 100.435 512 h 323.482 l 42.508 -215.362 c 22.648 -3.1 40.155 -22.574 40.155 -46.059 C 506.579 227.494 489.665 208.286 467.579 204.694 z M 460.091 281.863 h -6.249 h -288.69 v 15.204 h 285.69 L 411.42 496.796 h -48.582 l 23.525 -132.022 l -14.969 -2.667 l -24 134.688 h -83.793 V 322.897 h -15.204 v 173.898 h -83.793 l -23.999 -134.688 l -14.969 2.667 l 23.525 132.023 h -36.894 L 61.676 297.067 h 83.202 v -15.204 H 57.825 h -5.916 c -17.25 0 -31.284 -14.034 -31.284 -31.284 c 0 -17.25 14.034 -31.284 31.284 -31.284 h 7.602 h 155.482 v -15.204 H 59.671 C 63.682 99.258 150.203 15.204 255.999 15.204 s 192.318 84.054 196.328 188.888 H 393.16 v 15.204 h 59.329 h 7.602 c 17.25 0 31.284 14.034 31.284 31.284 C 491.375 267.829 477.341 281.863 460.091 281.863 z" stroke-linecap="round"/>
</g>
		<g transform="matrix(1.5625 0 0 1.5625 139.864 -231.3609)" id="Layer_1">
<path style="stroke: none; stroke-width: 1; stroke-dasharray: none; stroke-linecap: butt; stroke-dashoffset: 0; stroke-linejoin: miter; stroke-miterlimit: 4; is-custom-font: none; font-file-url: none; fill: rgb(73,30,23); fill-rule: nonzero; opacity: 1;" transform=" translate(-345.513, -107.929)" d="M 435.026 183.056 c -6.709 -42.092 -28.315 -80.704 -60.839 -108.726 c -32.876 -28.323 -74.849 -43.922 -118.187 -43.922 v 15.204 c 39.697 0 78.145 14.291 108.263 40.237 c 29.806 25.679 49.604 61.051 55.748 99.601 L 435.026 183.056 z" stroke-linecap="round"/>
</g>
</g>
</g>
<g transform="matrix(1 0 0 1 583.3333 500)" style="" id="316131">
		
<path xml:space="preserve" font-family="Lato" font-size="100" font-style="normal" font-weight="bold" style="stroke: none; stroke-width: 1; stroke-dasharray: none; stroke-linecap: butt; stroke-dashoffset: 0; stroke-linejoin: miter; stroke-miterlimit: 4; is-custom-font: none; font-file-url: none; fill: rgb(0,0,0); fill-rule: nonzero; opacity: 1; white-space: pre;" d="M-98.56 31.41L-110.91 31.41L-110.91-10.59L-115.36-11.29Q-116.81-11.54-117.68-12.29Q-118.56-13.04-118.56-14.39L-118.56-14.39L-118.56-19.44L-110.91-19.44L-110.91-23.24Q-110.91-27.64-109.58-31.14Q-108.26-34.64-105.78-37.09Q-103.31-39.54-99.76-40.84Q-96.21-42.14-91.76-42.14L-91.76-42.14Q-88.21-42.14-85.16-41.19L-85.16-41.19L-85.41-34.99Q-85.51-33.54-86.76-33.19Q-88.01-32.84-89.66-32.84L-89.66-32.84Q-91.86-32.84-93.58-32.36Q-95.31-31.89-96.51-30.71Q-97.71-29.54-98.33-27.61Q-98.96-25.69-98.96-22.84L-98.96-22.84L-98.96-19.44L-85.61-19.44L-85.61-10.64L-98.56-10.64L-98.56 31.41ZM-77.26-42.89L-64.91-42.89L-64.91 31.41L-77.26 31.41L-77.26-42.89ZM1.14-20.69L1.14-20.69Q5.49-20.69 9.24-19.01Q12.99-17.34 15.72-14.19Q18.44-11.04 19.99-6.54Q21.54-2.04 21.54 3.56L21.54 3.56Q21.54 4.96 21.42 5.89Q21.29 6.81 20.99 7.34Q20.69 7.86 20.17 8.09Q19.64 8.31 18.79 8.31L18.79 8.31L-11.11 8.31Q-10.41 15.66-6.93 19.14Q-3.46 22.61 2.04 22.61L2.04 22.61Q5.44 22.61 7.57 21.96Q9.69 21.31 11.09 20.51Q12.49 19.71 13.44 19.06Q14.39 18.41 15.44 18.41L15.44 18.41Q16.34 18.41 16.94 18.71Q17.54 19.01 17.94 19.56L17.94 19.56L21.24 23.76Q19.19 26.16 16.74 27.79Q14.29 29.41 11.62 30.39Q8.94 31.36 6.19 31.76Q3.44 32.16 0.84 32.16L0.84 32.16Q-4.61 32.16-9.33 29.71Q-14.06 27.26-17.11 22.06L-17.11 22.06Q-18.61 24.76-20.81 26.66Q-23.01 28.56-25.66 29.81Q-28.31 31.06-31.31 31.64Q-34.31 32.21-37.36 32.21L-37.36 32.21Q-41.11 32.21-44.08 31.26Q-47.06 30.31-49.16 28.49Q-51.26 26.66-52.38 23.94Q-53.51 21.21-53.51 17.66L-53.51 17.66Q-53.51 14.76-51.98 11.84Q-50.46 8.91-46.91 6.51Q-43.36 4.11-37.46 2.54Q-31.56 0.96-22.81 0.76L-22.81 0.76L-22.81-0.99Q-22.81-6.14-24.98-8.79Q-27.16-11.44-31.31-11.44L-31.31-11.44Q-34.31-11.44-36.31-10.66Q-38.31-9.89-39.78-8.99Q-41.26-8.09-42.51-7.31Q-43.76-6.54-45.26-6.54L-45.26-6.54Q-46.51-6.54-47.41-7.19Q-48.31-7.84-48.86-8.79L-48.86-8.79L-51.11-12.74Q-46.66-16.79-41.83-18.81Q-37.01-20.84-31.11-20.84L-31.11-20.84Q-25.31-20.84-21.61-18.64Q-17.91-16.44-15.96-12.59L-15.96-12.59Q-13.11-16.34-8.86-18.51Q-4.61-20.69 1.14-20.69ZM-22.81 10.61L-22.81 8.31Q-28.21 8.56-31.83 9.34Q-35.46 10.11-37.66 11.26Q-39.86 12.41-40.78 13.91Q-41.71 15.41-41.71 17.06L-41.71 17.06Q-41.71 20.51-39.76 22.11Q-37.81 23.71-34.41 23.71L-34.41 23.71Q-31.96 23.71-29.83 22.96Q-27.71 22.21-26.16 20.64Q-24.61 19.06-23.71 16.56Q-22.81 14.06-22.81 10.61L-22.81 10.61ZM0.59-11.84L0.59-11.84Q-4.66-11.84-7.53-8.51Q-10.41-5.19-11.06 0.86L-11.06 0.86L10.59 0.86Q10.59-1.59 9.99-3.89Q9.39-6.19 8.17-7.96Q6.94-9.74 5.04-10.79Q3.14-11.84 0.59-11.84ZM75.99-19.89L55.64 31.41L44.44 31.41L24.04-19.89L34.29-19.89Q35.64-19.89 36.57-19.24Q37.49-18.59 37.84-17.59L37.84-17.59L47.74 9.81Q48.59 12.21 49.17 14.51Q49.74 16.81 50.19 19.11L50.19 19.11Q50.64 16.81 51.22 14.51Q51.79 12.21 52.69 9.81L52.69 9.81L62.84-17.59Q63.19-18.59 64.09-19.24Q64.99-19.89 66.24-19.89L66.24-19.89L75.99-19.89ZM123.49-0.99L123.49 31.41L117.94 31.41Q116.19 31.41 115.19 30.89Q114.19 30.36 113.69 28.76L113.69 28.76L112.59 25.11Q110.64 26.86 108.77 28.19Q106.89 29.51 104.89 30.41Q102.89 31.31 100.64 31.76Q98.39 32.21 95.64 32.21L95.64 32.21Q92.39 32.21 89.64 31.34Q86.89 30.46 84.92 28.71Q82.94 26.96 81.84 24.36Q80.74 21.76 80.74 18.31L80.74 18.31Q80.74 15.41 82.27 12.59Q83.79 9.76 87.34 7.49Q90.89 5.21 96.79 3.71Q102.69 2.21 111.44 2.01L111.44 2.01L111.44-0.99Q111.44-6.14 109.27-8.61Q107.09-11.09 102.94-11.09L102.94-11.09Q99.94-11.09 97.94-10.39Q95.94-9.69 94.47-8.81Q92.99-7.94 91.74-7.24Q90.49-6.54 88.99-6.54L88.99-6.54Q87.74-6.54 86.84-7.19Q85.94-7.84 85.39-8.79L85.39-8.79L83.14-12.74Q91.99-20.84 104.49-20.84L104.49-20.84Q108.99-20.84 112.52-19.36Q116.04-17.89 118.49-15.26Q120.94-12.64 122.22-8.99Q123.49-5.34 123.49-0.99L123.49-0.99ZM99.49 23.71L99.49 23.71Q101.39 23.71 102.99 23.36Q104.59 23.01 106.02 22.31Q107.44 21.61 108.77 20.59Q110.09 19.56 111.44 18.16L111.44 18.16L111.44 9.51Q106.04 9.76 102.42 10.44Q98.79 11.11 96.59 12.16Q94.39 13.21 93.47 14.61Q92.54 16.01 92.54 17.66L92.54 17.66Q92.54 20.91 94.47 22.31Q96.39 23.71 99.49 23.71Z"/></g>
</svg>